<svg width="90" height="90" viewBox="0 0 90 90" fill="none" xmlns="http://www.w3.org/2000/svg">
<path d="M26.25 47.8125V42.1875C26.25 40.6875 24.9375 39.375 23.4375 39.375H2.8125C1.3125 39.375 0 40.6875 0 42.1875V47.8125C0 49.3125 1.3125 50.625 2.8125 50.625H23.4375C24.9375 50.625 26.25 49.3125 26.25 47.8125Z" fill="white" fill-opacity="0.8"/>
<path d="M29.8118 56.25C28.6868 55.125 26.9993 55.125 25.8743 56.25L11.2493 70.875C10.1243 72 10.1243 73.6875 11.2493 74.8125L15.1868 78.75C16.3118 79.875 17.9993 79.875 19.1243 78.75L33.7493 64.125C34.8743 63 34.8743 61.3125 33.7493 60.1875L29.8118 56.25Z" fill="white" fill-opacity="0.8"/>
<path d="M60.1868 33.75C61.3118 34.875 62.9993 34.875 64.1243 33.75L78.7493 19.125C79.8743 18 79.8743 16.3125 78.7493 15.1875L74.8118 11.25C73.6868 10.125 71.9993 10.125 70.8743 11.25L56.2493 25.6875C55.1243 26.8125 55.1243 28.5 56.2493 29.625L60.1868 33.75Z" fill="white" fill-opacity="0.8"/>
<path d="M19.1243 11.25C17.9993 10.125 16.3118 10.125 15.1868 11.25L11.2493 15.1875C10.1243 16.3125 10.1243 18 11.2493 19.125L25.8743 33.75C26.9993 34.875 28.6868 34.875 29.8118 33.75L33.7493 29.8125C34.8743 28.6875 34.8743 27 33.7493 25.875L19.1243 11.25Z" fill="white" fill-opacity="0.8"/>
<path d="M64.3118 56.25C63.1868 55.125 61.4993 55.125 60.3743 56.25L56.2493 60.1875C55.1243 61.3125 55.1243 63 56.2493 64.125L70.8743 78.75C71.9993 79.875 73.6868 79.875 74.8118 78.75L78.7493 74.8125C79.8743 73.6875 79.8743 72 78.7493 70.875L64.3118 56.25Z" fill="white" fill-opacity="0.8"/>
<path d="M47.8125 63.75H42.1875C40.6875 63.75 39.375 65.0625 39.375 66.5625V87.1875C39.375 88.6875 40.6875 90 42.1875 90H47.8125C49.3125 90 50.625 88.6875 50.625 87.1875V66.5625C50.625 65.0625 49.3125 63.75 47.8125 63.75Z" fill="white" fill-opacity="0.8"/>
<path d="M87.1875 39.375H66.5625C65.0625 39.375 63.75 40.6875 63.75 42.1875V47.8125C63.75 49.3125 65.0625 50.625 66.5625 50.625H87.1875C88.6875 50.625 90 49.3125 90 47.8125V42.1875C90 40.6875 88.6875 39.375 87.1875 39.375Z" fill="white" fill-opacity="0.8"/>
<path d="M47.8125 0H42.1875C40.6875 0 39.375 1.3125 39.375 2.8125V23.4375C39.375 24.9375 40.6875 26.25 42.1875 26.25H47.8125C49.3125 26.25 50.625 24.9375 50.625 23.4375V2.8125C50.625 1.3125 49.3125 0 47.8125 0Z" fill="white" fill-opacity="0.8"/>
</svg>
